<svg width="60" height="55" viewBox="0 0 60 55" 
  xmlns="http://www.w3.org/2000/svg">
  <title>Group</title>
  <g fill="none" fill-rule="evenodd">
    <path d="M28.093 54.183L7.582 33.294l-.15-.157C.622 26.018.133 14.992 6.43 8.582c5.949-6.058 15.923-5.971 22.923-.065 6.996-5.906 16.975-5.985 22.915.065 6.294 6.41 5.827 17.444-1.047 24.591l-.141.158-20.484 20.852a1.741 1.741 0 0 1-1.251.526 1.74 1.74 0 0 1-1.251-.526z" fill="#E76FD2"/>
    <path d="M10.246 30.152l17.282 17.29v.002a3.5 3.5 0 0 0 4.844.1l17.309-17.318.06-.07.084-.094c5.828-6.287 6.223-15.921 1.097-21.338-4.699-4.964-12.768-4.96-18.612.159l-2.305 2.019-2.306-2.018c-5.854-5.124-13.918-5.13-18.622-.16-5.116 5.404-4.727 15.032 1.07 21.32l.1.108z" stroke="#D24BA9" stroke-width="7"/>
    <path d="M41.72 10.14c3.275 0 7.815 3.997 7.815 9.454" stroke="#FFF" stroke-width="4" stroke-linecap="round"/>
    <path d="M7.714 33.217l-.152-.168C.589 25.456.089 13.694 6.535 6.857 12.625.395 22.836.488 30.004 6.788c7.162-6.3 17.379-6.384 23.46.069 6.443 6.837 5.965 18.608-1.072 26.231l-.144.168L34.29 51.658a6 6 0 0 1-8.59-.001L7.715 33.217z" stroke="#000" stroke-width="2.5"/>
  </g>
</svg>