<svg 
  xmlns="http://www.w3.org/2000/svg" 
  xmlns:xlink="http://www.w3.org/1999/xlink" width="350" height="350" viewBox="0 0 350 350">
  <defs>
    <clipPath id="c">
      <circle cx="-237" cy="175" r="130" fill="#f9ead7"/>
    </clipPath>
    <clipPath id="d">
      <path data-name="SVGID" d="M11.73 254.76s-.64 4.72-4.66 13.19c-5.47-17.23-15.89-34.44-29.43-44.7-.31-.23-.81-.56-1.46-1a53.68 53.68 0 0 0-78.06 25.18c-.49 1.2-1.17 2.8-1.17 2.8 7.11-5.55 16.81-9 16.81-9s-3.46 4.75-6.13 8.32c-8.22 11-13.62 26.1-9.45 40 1.3 4.35 4.62 8.56 8.79 12.4-21.17 3.44-36.17 25.12-36.17 25.12l-20.25 23.89 29.57 6.17 16.84.6c9 2.72 20.45 4.65 34.77 4.65 42.33 0 72.13-27.76 78.4-57.59.5-2.34 1-4.68 1.53-7 2-8.74 6.03-30.33.07-43.03z" fill="none"/>
    </clipPath>
    <linearGradient id="a" x1="-41.36" y1="279.28" x2="-41.36" y2="193.38" gradientUnits="userSpaceOnUse">
      <stop offset="0" stop-color="#fff" stop-opacity="0"/>
      <stop offset=".72" stop-color="#fff"/>
    </linearGradient>
    <clipPath id="e">
      <circle cx="175" cy="175" r="130" fill="#e9f7ff"/>
    </clipPath>
    <clipPath id="f">
      <path data-name="SVGID" d="M239.58 287.59c13.26 5.84 31.2 7.78 31.2 7.78s66.69 8.76 76.58-47.9c3.75-31.52-34-38.05-34-38.05s17.65-7.14 24-1.36c0 0-3.55-5.9-8.9-6.38 0 0 22.72-15.55 41 20 0 0-2.37-18.1-9.69-21.73 0 0 27.37 6.34 32.19 47 0 0 5.06-8.1 4.5-14.88 0 0 13.05 19.43-1.4 41.8 0 0 11.32-11 12.23-16.85 0 0 14.2 41.29-29.1 47.54 0 0 11.75 4.45 19.56.64 0 0-7.51 16.61-31.88 14.46 0 0 11.85 8.2 19.08 6.52 0 0-17.91 9.28-48.3 2.57 0 0 10.3 9.63 17.91 9.83 0 0-.71.19-2 .5a120.56 120.56 0 0 1-66.5-3.08l-29-9.81-17.47-7.21z" fill="none"/>
    </clipPath>
    <linearGradient id="b" x1="320.58" y1="352.28" x2="320.58" y2="298.15" gradientUnits="userSpaceOnUse">
      <stop offset="0" stop-color="gray"/>
      <stop offset=".27" stop-color="#7d7d7d"/>
      <stop offset=".46" stop-color="#747474"/>
      <stop offset=".64" stop-color="#646464"/>
      <stop offset=".8" stop-color="#4d4d4d"/>
      <stop offset=".95" stop-color="#303030"/>
      <stop offset="1" stop-color="#242424"/>
    </linearGradient>
    <linearGradient id="g" x1="369.19" y1="245.08" x2="369.19" y2="186.49" xlink:href="#a"/>
    <linearGradient id="h" x1="-1798.72" y1="-1207.57" x2="-1798.72" y2="-1284.82" gradientTransform="rotate(26.38 -3964.556 4043.08)" xlink:href="#b"/>
    <clipPath id="i">
      <path data-name="&lt;Clipping Path&gt;" d="M297.82 335.08c-7.07-4.82-21.75-10.13-29.55-12.4l-.13-.05a40.74 40.74 0 0 0 1.05-25.6l-22.11-71.91a20 20 0 0 0 6.78-3.69c-2.66 1.26-6.43-1.32-9-3.59l-.37-1.19c9 4.39 17.17-7.5 17.17-7.5-7.45.91-16.73-5.12-22.41-9.53l-.61-2c6 1.13 12.13-4 12.13-4-3.55.11-7.4-2.93-10.79-6.73a48.88 48.88 0 0 1-10.28-18.32l-9-29.26a39.46 39.46 0 0 0-7.76-14.66l10.58-17.12a2.47 2.47 0 0 0-2-3.76c-6.56-.32-17.23 7.73-21.25 10.89a39.41 39.41 0 0 0-9.49-3.31 59.27 59.27 0 0 1 3.6-6.31 1.68 1.68 0 0 0-1.84-2.53c-4.39 1.16-9.16 4.61-10.63 5.73a.2.2 0 0 1-.31-.21c.67-2.74 3.46-14.61 1.24-15.68-2.05-1-6 8.64-7.34 12.27a.2.2 0 0 1-.39-.09c.29-4 .8-15-2.13-14.45-3.23.61-9.23 14.41-10.37 17.1a.2.2 0 0 1-.37 0c-.77-1.93-3.77-9.17-4.8-6.63-1 2.34.09 7.12.55 8.92a.2.2 0 0 1-.33.2c-3.12-2.79-8.46-2.86-12.15-2.5a1.68 1.68 0 0 0-1 2.87 18 18 0 0 1 1.6 1.86 39.52 39.52 0 0 0-10.79 4.8l-.86-.58c-6.81-5.61-17.39-12.74-21.49-7a2.46 2.46 0 0 0-.14 2.63l9.94 17.77a39.45 39.45 0 0 0-5.42 15.41l-5 26.33a44.81 44.81 0 0 1-8.12 18.53c-2.93 3.89-6.37 7.15-9.88 7.51 0 0 6.82 4.31 12.59 2.37l-.4 2.09c-5 5.13-13.4 12.33-20.89 12.43 0 0 9.3 10.24 17.49 5.46l-.3 1.59c-2.23 2.41-5.27 4.89-7.83 4.08a19.94 19.94 0 0 0 6.56 2.62l-14.26 75a40.92 40.92 0 0 0 2.08 19.32h-.11C83 323.71 67.84 329.35 59 335.08c-4.36 2.82-1.67 9.18 3.8 9.08l43.86-.85c.74.45 1.5.89 2.27 1.3v.54c.06 3.83-1.09 7-4.92 7.16-2.55.13-4.63 1.63-5 3.46-.78 3.53 1 6.38 4.47 6.64l13.85.82a11.63 11.63 0 0 0 10.73-5.6 11.75 11.75 0 0 0 1.45-3.93l.82-4.38H218l.57 3.4a11.74 11.74 0 0 0 7.09 8.93 8.75 8.75 0 0 0 3.65.65l15.1-.5c3.62-.36 4.94-2.58 4.57-6.07-.12-1.14-1-4-4-4.19-2.6-.15-4.15-1.42-4.61-3.6a40.86 40.86 0 0 0 10.73-4.6l43 .82c5.38.1 8-6.16 3.72-9.08z" fill="none"/>
    </clipPath>
    <clipPath id="j">
      <path data-name="&lt;Clipping Path&gt;" d="M297.82 335.08c-7.07-4.82-21.75-10.13-29.55-12.4l-.13-.05a40.74 40.74 0 0 0 1.05-25.6l-22.11-71.91a20 20 0 0 0 6.78-3.69c-2.66 1.26-6.43-1.32-9-3.59l-.37-1.19c9 4.39 17.17-7.5 17.17-7.5-7.45.91-16.73-5.12-22.41-9.53l-.61-2c6 1.13 12.13-4 12.13-4-7.09.22-15.4-12.17-18.89-18l-11.18-36.34a39.46 39.46 0 0 0-7.76-14.66L225 105.13c-5.32-5.24-19.85 5.69-24.7 9.5a39.41 39.41 0 0 0-9.49-3.31 60.88 60.88 0 0 1 3.59-6.3 1.68 1.68 0 0 0-1.83-2.54c-4.38 1.15-9.15 4.61-10.62 5.73a.2.2 0 0 1-.32-.21c.68-2.74 3.46-14.61 1.24-15.68-2.05-1-6 8.64-7.34 12.26a.2.2 0 0 1-.39-.08c.29-4 .8-15-2.13-14.45-3.23.61-9.23 14.4-10.37 17.1a.2.2 0 0 1-.37 0c-.77-1.93-3.77-9.16-4.8-6.62-1 2.34.09 7.12.55 8.92a.2.2 0 0 1-.33.2c-3.12-2.79-8.46-2.86-12.15-2.5a1.68 1.68 0 0 0-1 2.87 18 18 0 0 1 1.6 1.86 39.52 39.52 0 0 0-10.79 4.8l-.86-.58c-7.31-6-19-13.79-22.28-5.53l10.59 18.93a39.45 39.45 0 0 0-5.42 15.41L111 178.42c-2.84 5.83-9.62 18.13-16.63 18.85 0 0 6.82 4.31 12.59 2.37l-.4 2.09c-5 5.13-13.4 12.33-20.89 12.43 0 0 9.3 10.24 17.49 5.46l-.3 1.59c-2.23 2.41-5.27 4.89-7.83 4.08a19.94 19.94 0 0 0 6.56 2.62l-14.26 75a40.92 40.92 0 0 0 2.08 19.32h-.11c-6.3 1.48-21.46 7.12-30.3 12.85-4.36 2.82-1.67 9.18 3.8 9.08l43.86-.85c.74.45 1.5.89 2.27 1.3v.54c.06 3.83-1.09 7-4.92 7.16-2.55.13-4.63 1.63-5 3.46-.78 3.53 1 6.38 4.47 6.64l13.85.82a11.63 11.63 0 0 0 10.73-5.6 11.75 11.75 0 0 0 1.45-3.93l.82-4.38H218l.57 3.4a11.74 11.74 0 0 0 7.09 8.93 8.75 8.75 0 0 0 3.65.65l15.1-.5c3.62-.36 4.94-2.58 4.57-6.07-.12-1.14-1-4-4-4.19-2.6-.15-4.15-1.42-4.61-3.6a40.86 40.86 0 0 0 10.73-4.6l43 .82c5.38.1 8-6.16 3.72-9.08z" fill="none"/>
    </clipPath>
    <clipPath id="k">
      <path data-name="&lt;Clipping Path&gt;" d="M220.16 136.85a17.4 17.4 0 0 0-18.87 3.78 21.26 21.26 0 1 0 35.92 18c0-.18 0-.36.07-.54.76-7.14-3.93-14.61-10.29-18-2.36-1.19-4.64-2.33-6.83-3.24z" fill="#fff" stroke="#31323d" stroke-linecap="round" stroke-miterlimit="10" stroke-width="1.639"/>
    </clipPath>
    <clipPath id="l">
      <path data-name="&lt;Clipping Path&gt;" d="M124.72 140.36a17.38 17.38 0 0 1 18.86 3.77 21.26 21.26 0 1 1-35.92 18l-.06-.53c-.77-7.15 3.93-14.61 10.29-18 2.36-1.2 4.64-2.34 6.83-3.24z" fill="#fff" stroke="#31323d" stroke-linecap="round" stroke-miterlimit="10" stroke-width="1.639"/>
    </clipPath>
  </defs>
  <title>kitty-love-2</title>
  <g data-name="Layer 1" style="isolation:isolate">
    <circle cx="-237" cy="175" r="130" fill="#f9ead7"/>
    <g clip-path="url(#c)">
      <g clip-path="url(#d)">
        <path fill="#b9916d" d="M11.58 361.44h-163.94V206.26H20.61l-9.03 155.18z"/>
        <path d="M-133.77 331.92s19.7-27.23 24-25.51c-17.61 20.49-4.57 32.43 4 35 34.87 10.28 92.77 19.36 116.3-28.76l-38.24 52.27-113.4-.53z" style="mix-blend-mode:multiply" fill="#7f7f7f" opacity=".2"/>
        <path d="M-89.79 231.2s26.47-25.57 66 1.31c16.24 11.68 25.14 46.77 25.14 46.77L7.07 268l-10.42-66-40.74-8.64-26.31 3.53z" style="mix-blend-mode:overlay" opacity=".5" fill="url(#a)"/>
      </g>
      <path d="M7.09 268c-5.47-17.26-15.89-34.49-29.45-44.75-.31-.23-.8-.56-1.45-1a53.68 53.68 0 0 0-78.06 25.18l-1.17 2.8c7.11-5.55 16.81-9 16.81-9s-3.47 4.75-6.13 8.32c-8.22 11-13.62 26.1-9.46 40 3.61 12 22.48 23 32.53 27.74a.8.8 0 0 0 1.15-1c-1.69-3.74 1.1-10.53 3.32-13.63 2.78-3.89 7.37-6 11.56-8.28s8.49-5.39 9.73-10q-.44 5-.88 10.08a35.8 35.8 0 0 0 15.59-15.17 34.9 34.9 0 0 0 3.3-8.84" fill="none" stroke="#31323d" stroke-linecap="round" stroke-linejoin="round" stroke-width="2.183"/>
      <path d="M-103 357.67c9 2.72 20.45 4.65 34.76 4.65 42.34 0 72.14-27.76 78.41-57.59.49-2.34 1-4.68 1.53-7 2-8.67 6-30.26.08-43 0 0-.83 6.18-6.62 17.08" fill="none" stroke="#31323d" stroke-linecap="round" stroke-linejoin="round" stroke-width="2.183"/>
    </g>
    <circle cx="175" cy="175" r="130" fill="#e9f7ff"/>
    <g clip-path="url(#e)">
      <g clip-path="url(#f)">
        <path fill="#b0d0f7" d="M232.16 194.35h180.42v149.06H232.16z"/>
        <path d="M276.73 311.9c20.56 10.1 13.76 20.25 38.27 22.16 40 6.34 63.31-8.17 75.08-23.56l19.26-8.64-18.44 50.42-159.1-1.77 10.38-52.36s23.53 8.32 34.55 13.75z" style="mix-blend-mode:multiply" opacity=".2" fill="url(#b)"/>
        <path d="M337.29 208.06s-12.63-11 25.8 3.46c38.2 14.38 31.9 33.56 31.9 33.56l32.81-13.52-45-41.38-66.1-3.38-6.15-.31z" style="mix-blend-mode:overlay" opacity=".5" fill="url(#g)"/>
        <path d="M331.2 228.1c1.63.32 22.47 1.87 20.44 30.32-2.1 29.5-23.67 36.87-60.09 34.65l43.64-47s-2.5-3.7-7.81-10.8-7.45-7.84-7.45-7.84a104.86 104.86 0 0 1 11.27.67z" style="mix-blend-mode:multiply" opacity=".2" fill="url(#h)"/>
      </g>
      <path d="M236.64 288.13c13.52 5.87 31.81 7.87 31.81 7.87s68 8.82 78.07-48.19c3.83-31.71-34.69-38.28-34.69-38.28s18-7.18 24.43-1.37c0 0-3.62-5.93-9.08-6.42 0 0 23.17-15.64 41.79 20.1 0 0-2.41-18.21-9.88-21.86 0 0 27.91 6.38 32.82 47.32 0 0 5.16-8.16 4.59-15 0 0 13.3 19.54-1.43 42 0 0 11.54-11 12.47-16.95 0 0 14.48 41.54-29.67 47.82 0 0 12 4.48 19.94.65 0 0-7.66 16.71-32.5 14.55 0 0 12.08 8.25 19.45 6.56 0 0-18.26 9.33-49.23 2.58 0 0 10.49 9.69 18.26 9.89 0 0-.74.19-2.06.5a124.42 124.42 0 0 1-67.7-3.16l-29.58-9.86-17.81-7.26z" fill="none" stroke="#31323d" stroke-linecap="round" stroke-linejoin="round" stroke-width="2.449"/>
      <g clip-path="url(#i)">
        <path fill="#b0d0f7" d="M55.23 89.01h249.83v286.43H55.23z"/>
        <path d="M126.35 369.55L146.5 268a29.11 29.11 0 0 1 28-23.45 29.11 29.11 0 0 1 29.17 23.92L221.38 366z" fill="#fff4eb"/>
        <path d="M228.92 105.68s-6.25-4.28-16.77 6.81l-5.54 6.65 9.21 7.64zm-121.59 6.57s4.52-3.11 11.77-.14a20.18 20.18 0 0 1 7.8 5.78l2.45 2.94-6.2 9zm22.18 9.61l11.72 7.14c14 8.5 12.29-.37 11.15-4.55s-7.23-13.33-7.23-13.33zm27.3-15.28s1.56 30.19 11.08 30.49 7.3-31.39 7.3-31.39l3.89-20.38-26.68.88zm33.86 4.42s-9.37 22.53-3.18 25.35 19.93-18.45 19.93-18.45zM86.94 224.88s10.29 2.22 15.85 3.34a35.7 35.7 0 0 0 8.39 6.08c7.51 3.77 8.3 10.57 4.91 14.14-4.26 4.51-16.87-.22-21-2.89s-18.84-14.2-18.84-14.2z" fill="#897dff"/>
        <path d="M68.42 221.78s24.58 36.55 41.5 44.5c10.49 5.27 11.59 14.75 6.86 19.74-6 6.29-23.56-.31-29.24-4s-26.3-19.81-26.3-19.81zm193.63-19.46s-10.79 29.65-21.19 38.1c-6.39 5.46-5.52 12.25-1.37 14.91 5.22 3.34 16.33-4.28 19.64-7.85S274 229.17 274 229.17zm20.14 29.85s-21.57 30.87-37.47 40.7c-9.81 6.44-9.82 16-4.55 20.4 6.63 5.56 23.37-3 28.59-7.36s23.86-22.69 23.86-22.69zm17.23 26.99S272.74 297 254.93 305.8c-4.73 2.48-6.31 7.16-7.65 10.5a11 11 0 0 0 2.06 12c3.12 3.18 9.1 3.09 15.11 1.69 0 0 2.75-5.86 4.06-9.23 2.63-6.72 39.32-18.86 39.32-18.86zM76.61 288.71c6.26-4.25 16.8 3.18 19.82 8.65 2.24 4.06 1.86 6.91 7.12 14.24 3.75 5.24 4.62 12.85 3.62 14.68-2.13 3.89-19.5-1-26.62-10.4-5.14-6.77-11.03-22.36-3.94-27.17z" fill="#897dff"/>
      </g>
      <g clip-path="url(#j)" fill="#7f7f7f" style="mix-blend-mode:multiply" opacity=".2">
        <path d="M148.74 116.25c-13.4 3.88-21.91 19-26.57 39.37-1.08 4.75-2.07 10.38-3 16.57-2.45 16.07-4.62 36-7.3 54.45-3.48 5.44-4.79 6.48-5.83 12.45-3.36 19.23-3.42 42.24-4.61 51.82a150.56 150.56 0 0 0-1.12 16.17v.55c3.86 4.27 7.83 14.59 8.64 29.05l.22 8.05s-5.15-.12-13.31-.12c-10.19 0-18.21-18.36-13-45.71 4.68-24.57-11.17-150.43-11.17-150.43L118 141.2a39.65 39.65 0 0 1 28.09-29.33zm-10.96 193.32c-4 24.27 8.91 29.29 11.26 29.83 14.21 2.55 36.77 1.45 44.11-1.14 6.87-2.42 21.35-9.61 17.75-31.13l7.1 42.19h-87.71zm103.15 19.21s4.91-15 10.9-20.51c-6.48 12.32 2.31 15.23 4.61 14.41 8.82-3.15 12.31-11 13-24.65l10.72 19.11s-9 42.06-33.52 35.16l-6.35-3z"/>
      </g>
      <path fill="none" stroke="#31323d" stroke-linecap="round" stroke-miterlimit="10" stroke-width="2.048" d="M218.18 349.06h-87.43m116.61-123.42l21.91 71.26a41 41 0 0 1-28.8 50.77m-131.05-3.32a41 41 0 0 1-21.55-41.63L102 228.37"/>
      <path d="M138.57 309.48c-1.12 10-3.07 19.82-4.88 29.68L131 354a12.52 12.52 0 0 1-4.06 7 12.91 12.91 0 0 1-7.51 3.1 17 17 0 0 1-2 0l-1.88-.1-3.76-.21-7.51-.47a6.42 6.42 0 0 1-4.15-1.59 6 6 0 0 1-1.86-4.12 8.24 8.24 0 0 1 .17-2.17 4.59 4.59 0 0 1 1-2.17 6.79 6.79 0 0 1 3.87-2.17 7.78 7.78 0 0 1 1.08-.14c.31 0 .54 0 .8-.09a3.42 3.42 0 0 0 1.32-.52 4 4 0 0 0 1.55-2.43 11.62 11.62 0 0 0 .29-3.43l-.16-3.75-.61-15v.08a45 45 0 0 0-2-9.53 30.36 30.36 0 0 0-2-4.44 33.21 33.21 0 0 0-2.7-4.09.36.36 0 0 1 .54-.48 25.93 25.93 0 0 1 5.65 8.43 39.15 39.15 0 0 1 2.51 9.86v.08l.75 15 .18 3.76a13.66 13.66 0 0 1-.33 4 6.19 6.19 0 0 1-2.44 3.73 5.55 5.55 0 0 1-2.14.86 8.88 8.88 0 0 1-1.07.13 7 7 0 0 0-.78.11 4.61 4.61 0 0 0-2.58 1.43 2.41 2.41 0 0 0-.56 1.17 6.46 6.46 0 0 0-.11 1.57 3.73 3.73 0 0 0 1.14 2.57 4.13 4.13 0 0 0 2.75 1l7.5.43 3.75.24 1.87.12a14.33 14.33 0 0 0 1.73 0 10.53 10.53 0 0 0 6.18-2.49 10.32 10.32 0 0 0 3.38-5.75l2.82-14.74c1.9-9.85 3.66-19.72 6.25-29.44a.38.38 0 0 1 .45-.26.37.37 0 0 1 .25.39zm72.93-2.56c2.67 11.42 4.5 23 6.49 34.53l1.48 8.65.37 2.17a11.45 11.45 0 0 0 .51 1.91 10.69 10.69 0 0 0 5.18 5.78 7.77 7.77 0 0 0 3.7.89l8.72-.32 4.38-.13 2.17-.07a5.32 5.32 0 0 0 1.71-.44 3 3 0 0 0 1.74-2.56 7.8 7.8 0 0 0 0-1.87 4.57 4.57 0 0 0-.59-1.63 3 3 0 0 0-1.12-1.12 2.89 2.89 0 0 0-.73-.27 2.73 2.73 0 0 0-.4-.05l-.58-.06a6.85 6.85 0 0 1-2.5-.75 5.1 5.1 0 0 1-2-1.94 8.79 8.79 0 0 1-.79-4.84l.09-4.4.1-4.4c0-.74.1-1.51.16-2.25s.16-1.5.29-2.24a43.17 43.17 0 0 1 6.32-16.63 44.24 44.24 0 0 1 5.46-7 .37.37 0 0 1 .52 0 .38.38 0 0 1 0 .49c-7 9.28-11.31 20.45-10.76 32.1l-.06 4.39v1.09a7.33 7.33 0 0 0 0 1 4.09 4.09 0 0 0 .5 1.66 3.4 3.4 0 0 0 2.81 1.57l.52.05a5.58 5.58 0 0 1 .68.1 4.55 4.55 0 0 1 1.32.48 5.16 5.16 0 0 1 2 1.91 6.94 6.94 0 0 1 .91 2.47 10.44 10.44 0 0 1 0 2.5 6 6 0 0 1-.9 2.54 5 5 0 0 1-2 1.77 8.06 8.06 0 0 1-2.51.67l-2.22.09-4.4.16-8.83.26a9.93 9.93 0 0 1-4.74-1.18 13 13 0 0 1-3.79-2.93 12.87 12.87 0 0 1-2.44-4.11 13.2 13.2 0 0 1-.61-2.32l-.36-2.16-1.42-8.67c-1.88-11.57-3.88-23.1-5.11-34.81a.37.37 0 0 1 .33-.4.36.36 0 0 1 .4.32z" fill="#31323d"/>
      <path d="M134.9 116.45c-6.8-5.59-17.35-12.71-21.44-7a2.47 2.47 0 0 0-.14 2.63l9.92 17.71M200.56 115c4-3.15 14.65-11.18 21.19-10.86a2.46 2.46 0 0 1 2 3.75L213.18 125" fill="none" stroke="#31323d" stroke-linecap="round" stroke-miterlimit="10" stroke-width="1.966"/>
      <path d="M112.17 226.56a13.22 13.22 0 0 1-4.06 1.94 14 14 0 0 1-4.51.44 19.24 19.24 0 0 1-4.45-.85 20.9 20.9 0 0 1-4.2-1.83 1.07 1.07 0 0 1-.34-1.49 1.09 1.09 0 0 1 1.26-.45 3.56 3.56 0 0 0 2.62-.44 12.45 12.45 0 0 0 2.64-1.91 25.21 25.21 0 0 0 2.36-2.48 32 32 0 0 0 2.09-2.74l1.7 1.32a11.91 11.91 0 0 1-5.29 3.52 11.1 11.1 0 0 1-6.36 0 19.52 19.52 0 0 1-5.56-2.65 28.06 28.06 0 0 1-4.65-3.94 1.06 1.06 0 0 1 0-1.5 1.07 1.07 0 0 1 .71-.29 17.08 17.08 0 0 0 7.08-2 39.14 39.14 0 0 0 6.52-4.21 69.1 69.1 0 0 0 5.81-5.16c1.83-1.83 3.62-3.76 5.24-5.74a1.06 1.06 0 1 1 1.64 1.34 10.71 10.71 0 0 1-4 3.07 11.74 11.74 0 0 1-5 .77 17.24 17.24 0 0 1-4.75-1 23.34 23.34 0 0 1-4.38-2 1 1 0 0 1 .42-1.94 9.22 9.22 0 0 0 5-2.82 30 30 0 0 0 4-4.92 57.77 57.77 0 0 0 5.9-11.46 66.48 66.48 0 0 0 3.34-12.51l2.46-12.91 1.23-6.45.57-3.29c.28-1.09.51-2.19.84-3.26a40.61 40.61 0 0 1 27.56-27.35 1 1 0 1 1 .58 2 38.55 38.55 0 0 0-26.16 26c-.31 1-.53 2.07-.8 3.1l-.54 3.2-1.23 6.47-2.35 12.86a68.31 68.31 0 0 1-3.43 12.87 60.73 60.73 0 0 1-6.11 11.89 31.44 31.44 0 0 1-4.29 5.26 11.12 11.12 0 0 1-6.28 3.4l.46-1.93a21.6 21.6 0 0 0 3.93 1.8 15.79 15.79 0 0 0 4.19.86 9.65 9.65 0 0 0 4-.61 8.68 8.68 0 0 0 3.18-2.44l1.66 1.32a78.29 78.29 0 0 1-5.41 5.93 69.05 69.05 0 0 1-6 5.33 41.63 41.63 0 0 1-6.8 4.4 19.15 19.15 0 0 1-8 2.21l.77-1.79a26.31 26.31 0 0 0 4.27 3.58 17.28 17.28 0 0 0 4.94 2.37 9 9 0 0 0 5.16 0 9.8 9.8 0 0 0 4.31-2.9 1.08 1.08 0 0 1 1.69 1.34 36.4 36.4 0 0 1-2.23 2.93 28.15 28.15 0 0 1-2.56 2.69 14.11 14.11 0 0 1-3.12 2.24 7.31 7.31 0 0 1-2 .7 4.79 4.79 0 0 1-2.28-.12l.93-1.94a18.7 18.7 0 0 0 3.6 1.91 17.41 17.41 0 0 0 4 1.09 12.33 12.33 0 0 0 4.11-.08 12 12 0 0 0 3.86-1.49.41.41 0 0 1 .55.16.42.42 0 0 1-.04.58zm79.99-115.68a41.61 41.61 0 0 1 12.55 5.3 41.1 41.1 0 0 1 10.08 9.16 40.2 40.2 0 0 1 6.47 12c1.38 4.32 2.58 8.53 3.88 12.81l3.86 12.76c.65 2.14 1.24 4.26 2 6.29a52.24 52.24 0 0 0 2.6 6 53.11 53.11 0 0 0 7.24 10.86 29.76 29.76 0 0 0 4.63 4.43 9.26 9.26 0 0 0 5.43 2.15 1.09 1.09 0 0 1 .7 1.94 23.1 23.1 0 0 1-4.07 2.59 17.62 17.62 0 0 1-4.59 1.61 11.87 11.87 0 0 1-5-.11 10.69 10.69 0 0 1-4.41-2.52 1.09 1.09 0 0 1 1.44-1.63h.05a73.39 73.39 0 0 0 5.95 5 65.48 65.48 0 0 0 6.44 4.35 38.81 38.81 0 0 0 6.94 3.27 17.12 17.12 0 0 0 7.3 1 1.05 1.05 0 0 1 1.15.93 1 1 0 0 1-.2.72 27.92 27.92 0 0 1-4.09 4.51 19.35 19.35 0 0 1-5.15 3.37 11.11 11.11 0 0 1-6.28.86 11.79 11.79 0 0 1-5.69-2.77l1.44-1.46c.75.83 1.58 1.67 2.43 2.44a27.5 27.5 0 0 0 2.66 2.18 12.54 12.54 0 0 0 2.88 1.58 3.7 3.7 0 0 0 2.78.11.91.91 0 0 1 1 1.53 20.12 20.12 0 0 1-8.1 3.93 13.52 13.52 0 0 1-4.53.19 12.3 12.3 0 0 1-4.27-1.38.41.41 0 0 1 .32-.75 12.61 12.61 0 0 0 4 1 13.38 13.38 0 0 0 4.08-.44 17.41 17.41 0 0 0 3.83-1.56 20.9 20.9 0 0 0 3.39-2.32l1 1.51a5.5 5.5 0 0 1-4.18 0 14.7 14.7 0 0 1-3.39-1.76 28.27 28.27 0 0 1-2.9-2.28 37.8 37.8 0 0 1-2.61-2.61 1 1 0 0 1 .08-1.45 1 1 0 0 1 1.34 0 9.76 9.76 0 0 0 4.69 2.3 9 9 0 0 0 5.13-.74 17.08 17.08 0 0 0 4.58-3 26.57 26.57 0 0 0 3.75-4.13l1 1.64a19.12 19.12 0 0 1-8.23-1.11 40.93 40.93 0 0 1-7.34-3.43 69.71 69.71 0 0 1-6.66-4.47c-2.13-1.62-4.17-3.3-6.16-5.15l1.51-1.56a8.75 8.75 0 0 0 3.46 2 9.56 9.56 0 0 0 4.06.06 15.57 15.57 0 0 0 4-1.42 21.25 21.25 0 0 0 3.65-2.3l.73 1.93a8.75 8.75 0 0 1-3.69-.77 15.5 15.5 0 0 1-3.09-1.82 31.76 31.76 0 0 1-5-4.77 55.72 55.72 0 0 1-7.51-11.31 57 57 0 0 1-2.68-6.23c-.79-2.14-1.39-4.31-2-6.43l-3.8-12.79-1.9-6.39c-.64-2.12-1.25-4.3-1.93-6.34a38.25 38.25 0 0 0-6.14-11.38 38.7 38.7 0 0 0-9.58-8.69 39.4 39.4 0 0 0-11.91-5 1 1 0 0 1-.76-1.24 1 1 0 0 1 1.34-.8z" fill="#31323d"/>
      <path d="M148.78 116.79c-.82-1.18-1.62-2.35-2.49-3.44-.43-.55-.89-1.06-1.36-1.56-.23-.25-.47-.48-.72-.73a2.52 2.52 0 0 1-.76-1.51 2.68 2.68 0 0 1 1.57-2.83 3.09 3.09 0 0 1 .83-.22h.55l1.12-.07a25.16 25.16 0 0 1 4.5.13 15.12 15.12 0 0 1 4.48 1.23 9.78 9.78 0 0 1 2 1.3l.12.1h.06a.87.87 0 0 0-1.07 0 .84.84 0 0 0-.31.5c-.05.2 0 .47 0 .33l-.07-.27-.25-1.08a28.22 28.22 0 0 1-.63-4.45 11.28 11.28 0 0 1 .09-2.38 6.48 6.48 0 0 1 .32-1.28 2.21 2.21 0 0 1 .58-.88 1.57 1.57 0 0 1 .79-.37 1.75 1.75 0 0 1 .82.08 3.35 3.35 0 0 1 1.28 1 11.26 11.26 0 0 1 .69 1c.41.66.76 1.33 1.09 2s.63 1.34.92 2l.44 1 .2.51.06.13a.91.91 0 0 0-.38-.44.93.93 0 0 0-1.15.15 1 1 0 0 0-.17.25v-.13l.11-.25.21-.5.44-1 .89-2c.61-1.33 1.23-2.64 1.89-3.94a46.48 46.48 0 0 1 4.56-7.63 8.32 8.32 0 0 1 1.79-1.76 2.9 2.9 0 0 1 1.7-.56 2.22 2.22 0 0 1 1.11.36 2.92 2.92 0 0 1 .69.66 6.47 6.47 0 0 1 1 2.46 21 21 0 0 1 .32 2.29 63.3 63.3 0 0 1 0 8.82l-.08 1.09a.9.9 0 0 0-.14-.55.93.93 0 0 0-1.1-.41 1 1 0 0 0-.53.41c-.13.26 0 .07 0 .07l.05-.13.1-.26.81-2c.56-1.35 1.15-2.69 1.78-4a34.3 34.3 0 0 1 2.14-3.93 9.06 9.06 0 0 1 1.6-1.91 2.49 2.49 0 0 1 .31-.23 2.11 2.11 0 0 1 .4-.22 2 2 0 0 1 1.16-.18 2 2 0 0 1 1.09.62 2 2 0 0 1 .3.41 2.13 2.13 0 0 1 .18.38 6.94 6.94 0 0 1 .38 2.54 21 21 0 0 1-.09 2.29c-.14 1.49-.37 2.94-.63 4.38s-.56 2.86-.88 4.28l-.51 2.13a.7.7 0 0 0 0-.32.84.84 0 0 0-.29-.5.87.87 0 0 0-1.08 0l.44-.33.9-.64a37.31 37.31 0 0 1 7.79-4.3l1.08-.37a6.71 6.71 0 0 1 1.29-.3 2.69 2.69 0 0 1 2.7 1.81 2.64 2.64 0 0 1 0 1.71 3.13 3.13 0 0 1-.35.71l-.29.44c-.4.59-.79 1.19-1.17 1.79a54.13 54.13 0 0 0-4.1 7.46.42.42 0 0 1-.54.21.4.4 0 0 1-.24-.46 30.34 30.34 0 0 1 3.28-8.16c.36-.64.72-1.28 1.1-1.9l.29-.47a.84.84 0 0 0 .12-.25.66.66 0 0 0-.66-.85 6.17 6.17 0 0 0-.81.22c-.32.1-.64.22-1 .34a35.39 35.39 0 0 0-7.31 4.09l-.85.62-.42.32a1.29 1.29 0 0 1-1.58 0 1.24 1.24 0 0 1-.43-.73 1.59 1.59 0 0 1 0-.59l.49-2.09c.31-1.39.59-2.79.84-4.19s.45-2.81.57-4.2a17.8 17.8 0 0 0 .1-2 5.41 5.41 0 0 0-.23-1.72c-.08-.21-.14-.11.12 0s.09 0-.09.15a6.72 6.72 0 0 0-1.14 1.42 32 32 0 0 0-2 3.67c-.6 1.28-1.16 2.59-1.7 3.92l-.79 2-.09.25-.05.12a1.55 1.55 0 0 1-.15.32 1.41 1.41 0 0 1-.73.58 1.4 1.4 0 0 1-1.58-.58 1.4 1.4 0 0 1-.19-.82l.06-1.07a61.36 61.36 0 0 0 0-8.47 17.82 17.82 0 0 0-.29-2 4.44 4.44 0 0 0-.55-1.56c-.11-.14-.08-.07 0-.06a2.17 2.17 0 0 0-.3.16 6.36 6.36 0 0 0-1.15 1.1 45.29 45.29 0 0 0-4.34 7.19c-.64 1.27-1.27 2.56-1.87 3.86l-.89 1.95-.43 1-.22.49-.1.25-.06.12v.09a1.19 1.19 0 0 1-.24.36 1.31 1.31 0 0 1-1.64.22 1.34 1.34 0 0 1-.55-.65v-.12l-.2-.49-.41-1c-.28-.65-.57-1.29-.88-1.92a19.61 19.61 0 0 0-1-1.82 8.15 8.15 0 0 0-.53-.78c-.16-.23-.42-.41-.33-.37a.44.44 0 0 0 .29 0 .6.6 0 0 0 .31-.14c.1-.1.05-.07 0 0a4.34 4.34 0 0 0-.21.81 10.29 10.29 0 0 0-.08 1.94 26.54 26.54 0 0 0 .57 4.11l.23 1 .06.25a1.33 1.33 0 0 1 0 .6 1.37 1.37 0 0 1-.44.74 1.29 1.29 0 0 1-1.58 0l-.24-.2a8.14 8.14 0 0 0-1.59-1 12.85 12.85 0 0 0-3.84-1.06 23.64 23.64 0 0 0-4.13-.15l-1.05.07h-.73a.71.71 0 0 0-.41.69.76.76 0 0 0 .18.4c.24.27.51.56.74.86a15.86 15.86 0 0 1 1.31 1.85 19.86 19.86 0 0 1 1.86 4 .42.42 0 0 1-.74.36z" fill="#31323d"/>
      <path d="M89.84 322c-6.24 1.49-21.37 7.12-30.23 12.83-4.34 2.81-1.66 9.16 3.8 9.06l46-.9" fill="none" stroke="#31323d" stroke-linecap="round" stroke-miterlimit="10" stroke-width="2.048"/>
      <path d="M75 335.57a7.91 7.91 0 0 0-4.43 2.62 3.14 3.14 0 0 0-.59 2.18 4.32 4.32 0 0 0 .22 1.16c.12.39.33.76.48 1.14l.07.17a1 1 0 1 1-1.9.77.29.29 0 0 1 0-.1 15.63 15.63 0 0 1-.45-1.52 6.3 6.3 0 0 1-.11-1.63 4.76 4.76 0 0 1 1.22-3A7.19 7.19 0 0 1 72 335.6a11 11 0 0 1 2.86-.75.37.37 0 0 1 .41.32.38.38 0 0 1-.28.4zm-7.82.33a4.51 4.51 0 0 0-3.3 2.66 4 4 0 0 0 0 2.05 9.59 9.59 0 0 0 .32 1l.48 1v.09a1 1 0 1 1-1.86.87.69.69 0 0 1 0-.13l-.41-1.29c-.08-.46-.19-.91-.23-1.37a5.67 5.67 0 0 1 .42-2.78 4.6 4.6 0 0 1 1.94-2 6.81 6.81 0 0 1 2.54-.81.35.35 0 0 1 .4.31.36.36 0 0 1-.27.4z" fill="#31323d"/>
      <path d="M268.36 322.49c7.77 2.26 22.42 7.55 29.46 12.36 4.27 2.92 1.66 9.16-3.79 9.06l-42.87-.84" fill="none" stroke="#31323d" stroke-linecap="round" stroke-miterlimit="10" stroke-width="2.048"/>
      <path d="M282.6 334.52a11.62 11.62 0 0 1 2.87.88 7.41 7.41 0 0 1 2.52 1.83 5 5 0 0 1 1.23 3.07 6.54 6.54 0 0 1-.11 1.66c-.1.54-.3 1-.45 1.55a1 1 0 0 1-2-.57l.05-.14.06-.13a6 6 0 0 0 .71-2.34 3.4 3.4 0 0 0-.61-2.25 8.2 8.2 0 0 0-4.43-2.84.35.35 0 0 1-.25-.45.36.36 0 0 1 .41-.27zm7.78.33a7.14 7.14 0 0 1 2.54 1 5 5 0 0 1 1.91 2.11 5.68 5.68 0 0 1 .47 2.86 11.17 11.17 0 0 1-.22 1.41l-.41 1.32a1 1 0 1 1-2-.61.73.73 0 0 1 .05-.12l.05-.1.48-1.05c.1-.35.25-.71.32-1.07a4.22 4.22 0 0 0-.06-2.12 4.85 4.85 0 0 0-3.3-2.87.37.37 0 0 1-.23-.46.36.36 0 0 1 .4-.3z" fill="#31323d"/>
      <path data-name="&lt;Clipping Path&gt;" d="M220.16 136.85a17.4 17.4 0 0 0-18.87 3.78 21.26 21.26 0 1 0 35.92 18c0-.18 0-.36.07-.54.76-7.14-3.93-14.61-10.29-18-2.36-1.19-4.64-2.33-6.83-3.24z" fill="#fff"/>
      <g clip-path="url(#k)">
        <circle cx="209.24" cy="156.57" r="14.36" fill="#f14bd3"/>
        <circle cx="209.24" cy="156.57" r="10.59" fill="#31323d"/>
        <circle cx="213.44" cy="147.7" r="5.76" fill="#fff"/>
      </g>
      <path data-name="&lt;Clipping Path&gt;" d="M220.16 136.85a17.4 17.4 0 0 0-18.87 3.78 21.26 21.26 0 1 0 35.92 18c0-.18 0-.36.07-.54.76-7.14-3.93-14.61-10.29-18-2.36-1.19-4.64-2.33-6.83-3.24z" fill="none" stroke="#31323d" stroke-linecap="round" stroke-miterlimit="10" stroke-width="1.639"/>
      <path data-name="&lt;Clipping Path&gt;" d="M124.72 140.36a17.38 17.38 0 0 1 18.86 3.77 21.26 21.26 0 1 1-35.92 18l-.06-.53c-.77-7.15 3.93-14.61 10.29-18 2.36-1.2 4.64-2.34 6.83-3.24z" fill="#fff"/>
      <g clip-path="url(#l)">
        <circle cx="136.69" cy="159.97" r="14.36" fill="#f14bd3"/>
        <circle cx="136.69" cy="159.97" r="10.59" fill="#31323d"/>
        <circle cx="140.9" cy="151.1" r="5.76" fill="#fff"/>
      </g>
      <path data-name="&lt;Clipping Path&gt;" d="M124.72 140.36a17.38 17.38 0 0 1 18.86 3.77 21.26 21.26 0 1 1-35.92 18l-.06-.53c-.77-7.15 3.93-14.61 10.29-18 2.36-1.2 4.64-2.34 6.83-3.24z" fill="none" stroke="#31323d" stroke-linecap="round" stroke-miterlimit="10" stroke-width="1.639"/>
      <path d="M237.22 157.61s3.61-12 2.6-18.22c0 0-3.26 3.07-6 2.87l1.06-3.88-8.58 2s10.37 5.82 10.92 17.23zm-129.98 4.67s-4.37-11.77-3.76-18c0 0 3.45 2.85 6.15 2.48l-1.31-3.81 8.69 1.44s-9.95 6.48-9.77 17.89zm67.23 17.02a53.35 53.35 0 0 0 7.15 8.77 31.93 31.93 0 0 0 9.13 6.56 17.62 17.62 0 0 0 5.35 1.48 13.68 13.68 0 0 0 5.5-.62 15.7 15.7 0 0 0 5-2.63 27 27 0 0 0 4.14-3.94.29.29 0 0 1 .4 0 .28.28 0 0 1 0 .4 28.05 28.05 0 0 1-4.08 4.22 16.82 16.82 0 0 1-5.12 3 14.92 14.92 0 0 1-5.93.9 18.9 18.9 0 0 1-5.85-1.36 33.5 33.5 0 0 1-9.91-6.5 56.38 56.38 0 0 1-7.85-8.88 1.23 1.23 0 0 1 2-1.43z" fill="#31323d"/>
      <path d="M139.82 193a21.6 21.6 0 0 0 10 4.42 14.28 14.28 0 0 0 10.18-2.19 20.44 20.44 0 0 0 4.07-3.48c.64-.64 1.16-1.39 1.74-2.08s1.06-1.48 1.54-2.25a47.66 47.66 0 0 0 2.64-4.81c.37-.84.78-1.66 1.13-2.51s.48-1.79 1.43-2.4a1 1 0 0 1 1.45.3 1.19 1.19 0 0 1 .13.34c.22 1.11-.42 1.88-.75 2.78s-.85 1.71-1.27 2.56a50.13 50.13 0 0 1-2.93 4.94c-.54.8-1.14 1.56-1.72 2.33s-1.22 1.49-1.94 2.16a20.67 20.67 0 0 1-4.59 3.61 15.74 15.74 0 0 1-11.31 1.88 19.59 19.59 0 0 1-5.39-2 21.73 21.73 0 0 1-4.64-3.27.19.19 0 0 1 0-.27.19.19 0 0 1 .26 0z" fill="#31323d"/>
      <path d="M162.13 175.25a2.46 2.46 0 0 1 .58-2.61c1.47-1.43 4.61-3.55 10.44-3.59s8.61 2 9.93 3.41a2.44 2.44 0 0 1 .41 2.64 3.4 3.4 0 0 1-3 2 6.56 6.56 0 0 0-5.35 2.61 1.73 1.73 0 0 1-.31.35h-.05a2.88 2.88 0 0 1-4.14-.23s-1.2-2-5.6-2.38a3.39 3.39 0 0 1-2.9-2.21zm23.66 30.51a9.79 9.79 0 0 1-1.55 3.14 11.68 11.68 0 0 1-2.66 2.39 13.14 13.14 0 0 1-3.32 1.4 14.25 14.25 0 0 1-3.56.35 13.78 13.78 0 0 1-6.72-2.11 11.81 11.81 0 0 1-4.54-5.17.41.41 0 0 1 .21-.54.43.43 0 0 1 .48.11 15.12 15.12 0 0 0 4.85 3.81 14.61 14.61 0 0 0 5.79 1.46 12.5 12.5 0 0 0 5.75-1.18 12.37 12.37 0 0 0 2.49-1.65 13.09 13.09 0 0 0 2-2.34.41.41 0 0 1 .57-.1.42.42 0 0 1 .21.43z" fill="#31323d"/>
      <path d="M164 205.89s.4 11.9 10.38 11.69c9.66-.21 10.93-11.32 10.93-11.32a12.86 12.86 0 0 1-9.8 4.86c-6.23-.03-11.51-5.23-11.51-5.23z" style="mix-blend-mode:multiply" fill="#595959" opacity=".2"/>
      <path d="M188.39 182.69a88.6 88.6 0 0 1 14.85-1.69 75.63 75.63 0 0 1 14.88.9 49.61 49.61 0 0 1 14.18 4.45 34.29 34.29 0 0 1 11.5 9.26 34.12 34.12 0 0 0-11.68-8.89 49.34 49.34 0 0 0-14.13-4 74.46 74.46 0 0 0-14.7-.48 86.55 86.55 0 0 0-14.53 2.1.82.82 0 1 1-.38-1.6zm28.34-8.08a84 84 0 0 0-24.73 4.52.82.82 0 1 1-.53-1.55h.05a84.28 84.28 0 0 1 25.21-2.97zm-26.09 11.88a20.7 20.7 0 0 1 7.69.14 26.18 26.18 0 0 1 7 2.81 36.72 36.72 0 0 1 6 4.5 40.2 40.2 0 0 1 5 5.5 41.25 41.25 0 0 0-5.29-5.2 36.1 36.1 0 0 0-6.13-4.08 25.35 25.35 0 0 0-6.87-2.33 19.47 19.47 0 0 0-7.1.26h-.06a.82.82 0 1 1-.33-1.6zm-31.21.32c-4.92-1-9.79-1.93-14.74-2.5a81.24 81.24 0 0 0-14.87-.5 44.46 44.46 0 0 0-14.49 3.19 28.6 28.6 0 0 0-11.74 9 28.88 28.88 0 0 1 11.58-9.34 45 45 0 0 1 14.58-3.66 82.46 82.46 0 0 1 15.07.1c5 .44 10 1.26 14.89 2.1a.82.82 0 0 1 .67.95.81.81 0 0 1-.94.67zm-28.64-9.63a44.29 44.29 0 0 1 25.73 3.1.81.81 0 0 1 .42 1.08.82.82 0 0 1-1.08.42h-.05a43.47 43.47 0 0 0-25.02-4.6zm26.51 13.51a15.86 15.86 0 0 0-3.5-.55 17.19 17.19 0 0 0-3.57.33 22.2 22.2 0 0 0-6.74 2.76 36.11 36.11 0 0 0-5.91 4.49 45.37 45.37 0 0 0-5 5.51 45.44 45.44 0 0 1 4.76-5.8 35.91 35.91 0 0 1 5.75-4.89 22.67 22.67 0 0 1 6.9-3.26 17.72 17.72 0 0 1 3.85-.57 17.19 17.19 0 0 1 3.91.4.82.82 0 1 1-.34 1.6h-.07z" fill="#31323d"/>
    </g>
  </g>
</svg>