<svg 
  xmlns="http://www.w3.org/2000/svg" 
  xmlns:xlink="http://www.w3.org/1999/xlink" width="350" height="350" viewBox="0 0 350 350">
  <defs>
    <clipPath id="c">
      <circle cx="175" cy="175" r="130" fill="#f9ead7"/>
    </clipPath>
    <clipPath id="d">
      <path data-name="SVGID" d="M423.73 254.76s-.64 4.72-4.66 13.19c-5.47-17.23-15.89-34.44-29.43-44.7-.31-.23-.81-.56-1.46-1a53.68 53.68 0 0 0-78.06 25.18c-.49 1.2-1.17 2.8-1.17 2.8 7.11-5.55 16.81-9 16.81-9s-3.46 4.75-6.13 8.32c-8.22 11-13.62 26.1-9.45 40 1.3 4.35 4.62 8.56 8.79 12.4-21.18 3.38-36.18 25.05-36.18 25.05l-20.25 23.9 29.57 6.17 16.84.6c9 2.72 20.45 4.65 34.77 4.65 42.33 0 72.13-27.76 78.4-57.59.5-2.34 1-4.68 1.53-7 2.01-8.68 6.04-30.27.08-42.97z" fill="none"/>
    </clipPath>
    <linearGradient id="b" x1="370.64" y1="279.28" x2="370.64" y2="193.38" gradientUnits="userSpaceOnUse">
      <stop offset="0" stop-color="#fff" stop-opacity="0"/>
      <stop offset=".72" stop-color="#fff"/>
    </linearGradient>
    <clipPath id="e">
      <path data-name="&lt;Clipping Path&gt;" d="M311.41 352.67c-7.5-5.13-23.1-10.77-31.39-13.18l-.14-.06a43.32 43.32 0 0 0 1.12-27.21l-32.77-106.57c3.07-6.1 10.66-19.36 19.77-22 0 0-15.49-9.87-21.71 2.5 0 0 3.78-11.5 9-11.29 0 0-9.38-2.36-16.42.31l-9.41-30.6a41.92 41.92 0 0 0-8.24-15.57L234 108.3c-3-1.48-21.1 6-26.25 10.1-1.64-.82-7.65-2.85-9.39-3.45 4.14-13.36-3.08-22.25-3.08-22.25a11.45 11.45 0 0 1-5.3 11.42c6.64-15.23-24.22-30.38-24.22-30.38a17.59 17.59 0 0 1-6.12 17.54c-10.24 8.67-6.06 16.24-6.06 16.24s-5.9-1.63-5.48-7.26c-5.29 6.34-2.5 11.85.18 15.66a83.13 83.13 0 0 0-10 4.93l-.47-.9c-7.78-6.4-21.76-8.58-23.69-5.87l11.26 20.11a42.12 42.12 0 0 0-5.76 16.37l-5.54 29.17c-7.62-2-16.56 3.19-16.56 3.19 5-1.57 11.65 8.53 11.65 8.53-9.26-10.3-21.61 3.3-21.61 3.3 9.48.13 17.24 11.79 20.37 17.28L87.71 318.42a43.46 43.46 0 0 0 2.2 20.52l-.11.05c-6.65 1.59-22.77 7.58-32.2 13.68-4.63 3-1.77 9.75 4 9.65l46.6-.91c.79.48 1.59.94 2.41 1.37v.59c.07 4.07-1.16 7.4-5.23 7.6-2.71.14-4.92 1.73-5.35 3.68-.82 3.76 1 6.78 4.76 7.06l14.71.87a12.36 12.36 0 0 0 11.41-6 12.58 12.58 0 0 0 1.54-4.17l.87-4.65h93.16l.61 3.61a12.51 12.51 0 0 0 7.53 9.49 9.41 9.41 0 0 0 3.89.69l16-.53c3.85-.39 5.26-2.74 4.87-6.45-.13-1.21-1.09-4.28-4.28-4.46-2.75-.15-4.4-1.5-4.9-3.82a43 43 0 0 0 11.42-4.91l45.65.9c5.91.14 8.73-6.51 4.14-9.61z" fill="none"/>
    </clipPath>
    <linearGradient id="a" x1="226.34" y1="108.02" x2="226.34" y2="131.31" gradientUnits="userSpaceOnUse">
      <stop offset="0" stop-color="gray"/>
      <stop offset=".14" stop-color="#797979"/>
      <stop offset=".35" stop-color="#646464"/>
      <stop offset=".6" stop-color="#434343"/>
      <stop offset=".89" stop-color="#141414"/>
      <stop offset="1"/>
    </linearGradient>
    <linearGradient id="f" x1="108.99" y1="124.47" x2="132.39" y2="124.47" xlink:href="#a"/>
    <linearGradient id="g" x1="249.03" y1="363.26" x2="249.03" y2="114.95" xlink:href="#b"/>
  </defs>
  <title>kitty-love-1</title>
  <g data-name="Layer 1" style="isolation:isolate">
    <circle cx="175" cy="175" r="130" fill="#f9ead7"/>
    <g clip-path="url(#c)">
      <g clip-path="url(#d)">
        <path fill="#b9916d" d="M423.58 361.44H259.64V206.26h172.98l-9.04 155.18z"/>
        <path d="M278.23 331.92s19.7-27.23 24-25.51c-17.61 20.49-4.57 32.43 4 35 34.84 10.31 92.69 19.39 116.27-28.73l-38.24 52.27-113.4-.53z" style="mix-blend-mode:multiply" fill="#7f7f7f" opacity=".2"/>
        <path d="M318 299.45a35.54 35.54 0 0 0-4.37 1.07c.63.65 6.23 18.14 24.29 20.76a1.2 1.2 0 0 0 1.28-1.66 15.49 15.49 0 0 1-1-4.21m47.99-43.86s-3.43 17.7-9.19 24.16a20.11 20.11 0 0 1-12.18 6.55.63.63 0 0 1-.7-.74 12.91 12.91 0 0 0-.39-4.94s-21.21 11.26-19.81 20.17c0 0-2.8-12.55 11.82-20.81s12.17-11.41 12.17-11.41l-.3 9.56c9.91-1.93 18.58-22.54 18.58-22.54z" style="mix-blend-mode:multiply" fill="#7f7f7f" opacity=".2"/>
        <path d="M322.21 231.2s26.47-25.57 66 1.31c16.24 11.68 25.14 46.77 25.14 46.77l5.72-11.28-10.42-66-40.74-8.64-26.31 3.53z" style="mix-blend-mode:overlay" opacity=".5" fill="url(#b)"/>
      </g>
      <path d="M419.09 268c-5.47-17.24-15.89-34.47-29.45-44.73-.31-.23-.8-.56-1.45-1a53.68 53.68 0 0 0-78.06 25.18l-1.17 2.8c7.11-5.55 16.81-9 16.81-9s-3.47 4.75-6.13 8.32c-8.22 11-13.62 26.1-9.46 40 3.61 12 22.48 23 32.53 27.74a.8.8 0 0 0 1.15-1c-1.69-3.74 1.1-10.53 3.32-13.63 2.78-3.89 7.37-6 11.56-8.28s8.49-5.39 9.73-10q-.44 5-.88 10.08a35.8 35.8 0 0 0 15.59-15.17 34.9 34.9 0 0 0 3.3-8.84" fill="none" stroke="#31323d" stroke-linecap="round" stroke-linejoin="round" stroke-width="2.183"/>
      <path d="M282.79 327s15-21.68 36.18-25.12" fill="none" stroke="#31323d" stroke-linecap="round" stroke-miterlimit="10" stroke-width="2.183"/>
      <path d="M309 357.67c9 2.72 20.45 4.65 34.76 4.65 42.34 0 72.14-27.76 78.41-57.59.49-2.34 1-4.68 1.53-7 2-8.67 6-30.26.08-43 0 0-.83 6.18-6.62 17.08" fill="none" stroke="#31323d" stroke-linecap="round" stroke-linejoin="round" stroke-width="2.183"/>
      <path d="M311.41 352.67c-7.5-5.13-23.1-10.77-31.39-13.18l-.14-.06a43.32 43.32 0 0 0 1.12-27.21l-32.77-106.57c3.07-6.1 10.66-19.36 19.77-22 0 0-15.49-9.87-21.71 2.5 0 0 3.78-11.5 9-11.29 0 0-9.38-2.36-16.42.31l-9.41-30.6a41.92 41.92 0 0 0-8.24-15.57L234 108.3c-3-1.48-21.1 6-26.25 10.1a43.64 43.64 0 0 0-5.08-2.14c2.75-12.7-7.39-23.56-7.39-23.56a11.45 11.45 0 0 1-5.3 11.42c6.64-15.23-24.22-30.38-24.22-30.38a17.59 17.59 0 0 1-6.12 17.54c-10.24 8.67-6.06 16.24-6.06 16.24s-5.9-1.63-5.48-7.26a16.16 16.16 0 0 0-2.83 16.88 41.89 41.89 0 0 0-7 3.71l-.47-.9c-7.78-6.4-21.76-8.58-23.69-5.87l11.26 20.11a42.12 42.12 0 0 0-5.76 16.37l-5.54 29.17c-7.62-2-16.56 3.19-16.56 3.19 5-1.57 11.65 8.53 11.65 8.53-9.26-10.3-21.61 3.3-21.61 3.3 9.48.13 17.24 11.79 20.37 17.28L87.71 318.42a43.46 43.46 0 0 0 2.2 20.52l-.11.05c-6.65 1.59-22.77 7.58-32.2 13.68-4.63 3-1.77 9.75 4 9.65l46.6-.91c.79.48 1.59.94 2.41 1.37v.59c.07 4.07-1.16 7.4-5.23 7.6-2.71.14-4.92 1.73-5.35 3.68-.82 3.76 1 6.78 4.76 7.06l14.71.87a12.36 12.36 0 0 0 11.41-6 12.58 12.58 0 0 0 1.54-4.17l.87-4.65h93.16l.61 3.61a12.51 12.51 0 0 0 7.53 9.49 9.41 9.41 0 0 0 3.89.69l16-.53c3.85-.39 5.26-2.74 4.87-6.45-.13-1.21-1.09-4.28-4.28-4.46-2.75-.15-4.4-1.5-4.9-3.82a43 43 0 0 0 11.42-4.91l45.65.9c5.91.14 8.73-6.51 4.14-9.61z" fill="none"/>
      <g clip-path="url(#e)">
        <path fill="#b9916d" d="M53.63 68.21h265.49v316.61H53.63z"/>
        <path d="M238.2 108.88s-6.64-4.54-17.82 7.24l-5.89 7.07 9.79 8.12z" style="mix-blend-mode:multiply" opacity=".4" fill="url(#a)"/>
        <path d="M109 115.87s4.81-3.31 12.51-.15a21.43 21.43 0 0 1 8.29 6.15l2.6 3.12-6.59 9.59z" style="mix-blend-mode:multiply" opacity=".4" fill="url(#f)"/>
        <path d="M133.49 370c-1-2.55.56-9.92 3.61-24.66 1.83-8.81 3.29-14.57 4.19-18.33 6.78-28.28 2.82-31.35 8.73-48.19 4-11.51 8.23-22.9 19.38-28.29 1.34-.64 11.51-5.36 21.83-1.22 10.07 4.05 14.18 14.08 18.39 24.78 5.09 12.95 3.48 17.42 9.26 49.81l3.6 20.22c.72 4 1.4 7.92 2.1 11.87 1.64 9.3 1.68 9.46 1.63 9.82-1.68 13.66-84.96 24.5-92.72 4.19z" fill="#fffff4"/>
        <path d="M138.15 342.15L131 376.62l-4.9 4.87-7.7 1-18.47-1.86v-7.57l10.54-6.75-1.8-30s4.71 6.58 15.88 7.1 13.6-1.26 13.6-1.26zm115.49-3.32l-2.8 12.86-.34 15.36 9.42 6v7.57l-18.47 1.86-7.71-1-4.89-4.87-7.17-34.47s6 5.66 17.16 4.31c11.53-1.39 14.8-7.62 14.8-7.62z" fill="#fffff4"/>
        <path d="M87.5 328.11s-1 17.29 23.1 34.64l-42.95 5.05-24.86-8.38 1.84-7.14zm194.24 4.95s-5.1 21.49-23.36 30.22l58.21.7V350z" fill="#fffff4"/>
      </g>
      <g clip-path="url(#e)" fill="#7f7f7f" style="mix-blend-mode:multiply" opacity=".2">
        <path d="M153 120.12c-14.24 4.13-23.29 20.22-28.23 41.83-1.15 5.05-2.21 11-3.21 17.62a49 49 0 0 0-.53 7.71c0 6.26.32 12.33.67 17.32.29 4.22-1.4 9.31-3.84 13.55a48.84 48.84 0 0 0-5.94 16.8v.22c-3.51 23.25-8.08 61.68-9.19 70.55a162 162 0 0 0-1.19 17.19v.59c4.1 4.53 8.32 15.49 9.18 30.87l.23 8.55s-5.47-.13-14.14-.13c-10.83 0-19.35-19.51-13.82-48.58 5-26.1-11.87-159.85-11.87-159.85l49.26-7.73s3.14-21.86 28-30.71zm-11.65 205.43c-4.25 25.8 9.47 31.14 12 31.71 15.1 2.7 39.08 1.54 46.88-1.22 7.3-2.57 22.68-10.21 18.86-33.08l7.5 44.84h-93.2zM251 346s5.22-16 11.58-21.8c-6.88 13.09 2.46 16.19 4.9 15.32 9.38-3.35 13.09-11.65 13.84-26.2l11.39 20.31s-9.6 44.69-35.62 37.36l-6.75-3.16z"/>
      </g>
      <g clip-path="url(#e)" style="mix-blend-mode:overlay" opacity=".2">
        <path d="M196.82 117.56s10.94 3.67 14.78 9.13 9.1 15.07 12.86 31.6c3 13.23 6.67 32 12 48.54 2 6.32 5.19 9.68 7.36 16.13 11.48 34.26 22.56 69.1 27.35 90.37 8 35.74-14.18 49.93-14.18 49.93l10.67-6.19s11-13.06 12.65-18.79c3.63-12.56 24.28-5.76 20.47-25.79C295.24 283.43 261 135.37 261 135.37s-35.13 2.46-40-6.16c-3.61-6.42-13.72-11.6-22.61-14.26z" fill="url(#g)"/>
      </g>
      <path d="M250.47 212.94L281 312.22a43.73 43.73 0 0 1-30.69 54.11m-139.65-3.54a43.7 43.7 0 0 1-23-44.37l18.63-98" fill="none" stroke="#31323d" stroke-linecap="round" stroke-miterlimit="10" stroke-width="2.183"/>
      <path d="M141.73 325.62c-1.2 10.65-3.27 21.13-5.2 31.63L133.61 373a13.38 13.38 0 0 1-4.33 7.47 13.69 13.69 0 0 1-8 3.29 17.29 17.29 0 0 1-2.16 0l-2-.11-4-.23-8-.49a6.92 6.92 0 0 1-4.43-1.7 6.44 6.44 0 0 1-2-4.39 9.29 9.29 0 0 1 .18-2.31 5 5 0 0 1 1.12-2.32 7.3 7.3 0 0 1 4.12-2.31 11.31 11.31 0 0 1 1.15-.15c.34 0 .58 0 .85-.09a3.7 3.7 0 0 0 1.42-.55 4.29 4.29 0 0 0 1.65-2.6 12.41 12.41 0 0 0 .31-3.65l-.17-4-.65-16v.14a47.62 47.62 0 0 0-2.17-10.16 30.63 30.63 0 0 0-2.11-4.72 32.63 32.63 0 0 0-2.88-4.37.39.39 0 0 1 .58-.51 27.59 27.59 0 0 1 6 9 41.21 41.21 0 0 1 2.67 10.51v.09l.79 16 .2 4a14.87 14.87 0 0 1-.35 4.31 8.51 8.51 0 0 1-.89 2.16 5.67 5.67 0 0 1-1.71 1.81 6.08 6.08 0 0 1-2.29.91 10.1 10.1 0 0 1-1.14.14 5.93 5.93 0 0 0-.83.12 4.93 4.93 0 0 0-2.75 1.52 2.63 2.63 0 0 0-.59 1.25 6.79 6.79 0 0 0-.12 1.67 4 4 0 0 0 1.21 2.74 4.47 4.47 0 0 0 2.93 1l8 .45 4 .25 2 .13a16.26 16.26 0 0 0 1.84 0 11.33 11.33 0 0 0 6.59-2.66 11 11 0 0 0 3.59-6.12l3-15.72c2-10.49 3.89-21 6.65-31.36a.39.39 0 0 1 .77.14zm77.7-2.72c2.85 12.17 4.8 24.5 6.92 36.79l1.57 9.22.4 2.31a12.06 12.06 0 0 0 .55 2 11.53 11.53 0 0 0 2.18 3.6 11.33 11.33 0 0 0 3.33 2.55 8.19 8.19 0 0 0 3.94.95l9.3-.33 4.67-.14 2.31-.08a5.87 5.87 0 0 0 1.83-.47 3.18 3.18 0 0 0 1.84-2.72 7.88 7.88 0 0 0 0-2 5 5 0 0 0-.62-1.74 3.26 3.26 0 0 0-1.2-1.19 2.9 2.9 0 0 0-.78-.28 2 2 0 0 0-.43-.06l-.61-.07a7.37 7.37 0 0 1-2.67-.79 5.54 5.54 0 0 1-2.09-2.07 9.33 9.33 0 0 1-.84-5.16l.1-4.69.09-4.68c0-.79.11-1.61.18-2.41s.17-1.59.31-2.37a46 46 0 0 1 2.45-9.24 48 48 0 0 1 10.1-15.95.39.39 0 0 1 .55 0 .4.4 0 0 1 0 .52 60.36 60.36 0 0 0-8.75 16.16 49.29 49.29 0 0 0-2.21 8.86c-.13.75-.19 1.5-.28 2.26s-.11 1.5-.15 2.26l-.07 4.67-.06 4.67v2.17a4.43 4.43 0 0 0 .54 1.77 3.65 3.65 0 0 0 3 1.68l.55.05a4.45 4.45 0 0 1 .72.1 5 5 0 0 1 1.42.51 5.57 5.57 0 0 1 2.11 2 7.31 7.31 0 0 1 1 2.64 10.76 10.76 0 0 1 0 2.66 6.31 6.31 0 0 1-.95 2.71 5.4 5.4 0 0 1-2.25 1.92 8.09 8.09 0 0 1-2.68.72c-.81.05-1.57.06-2.36.09l-4.69.17-9.41.29a10.65 10.65 0 0 1-5.06-1.25 13.69 13.69 0 0 1-6.64-7.5 14.94 14.94 0 0 1-.64-2.47l-.38-2.31-1.52-9.23c-2-12.32-4.16-24.61-5.44-37a.39.39 0 0 1 .35-.43.39.39 0 0 1 .47.33z" fill="#31323d"/>
      <path d="M89.8 339c-6.65 1.59-22.77 7.58-32.2 13.68-4.63 3-1.77 9.75 4 9.65l49-1M280 339.49c8.29 2.41 23.89 8.05 31.39 13.18 4.55 3.1 1.77 9.75-4 9.65l-45.68-.9m-13.29-155.16l10.42 33.89m-20.17-65.62l-9.21-29.94a42.06 42.06 0 0 0-26.1-28.09l-4.62-1.5m-84.49 63.85l5.38-28.29a42.07 42.07 0 0 1 25.2-33.22l3.17-1.24m-44.13 117.36l3.91-20.6" fill="none" stroke="#31323d" stroke-linecap="round" stroke-miterlimit="10" stroke-width="2.183"/>
      <path d="M108.88 215.08a58.94 58.94 0 0 0-4-6.54 49.69 49.69 0 0 0-4.78-5.92 27.65 27.65 0 0 0-5.78-4.73 13.54 13.54 0 0 0-6.8-2 1.09 1.09 0 0 1-1.08-1.1 1.08 1.08 0 0 1 .28-.72 29.66 29.66 0 0 1 5-4.17 20.39 20.39 0 0 1 5.91-2.9 13.37 13.37 0 0 1 3.35-.51 10.92 10.92 0 0 1 3.4.48 12.68 12.68 0 0 1 5.61 3.73l-1.72 1.34a36 36 0 0 0-2.23-2.93 28.54 28.54 0 0 0-2.51-2.64 13.19 13.19 0 0 0-2.83-2.05 3.8 3.8 0 0 0-2.84-.47 1.1 1.1 0 0 1-.89-2 33.44 33.44 0 0 1 5.08-2.07 29.49 29.49 0 0 1 5.33-1.17 18.65 18.65 0 0 1 5.48.13 14.46 14.46 0 0 1 2.66.77 13.44 13.44 0 0 1 2.41 1.33.44.44 0 0 1-.48.73 11.71 11.71 0 0 0-2.29-1.09 13.81 13.81 0 0 0-2.47-.56 17.34 17.34 0 0 0-5.08.21 26.62 26.62 0 0 0-4.93 1.4 32.09 32.09 0 0 0-4.61 2.21l-.87-2a5 5 0 0 1 2.4-.12 7.64 7.64 0 0 1 2.08.73 15.59 15.59 0 0 1 3.32 2.38 30.4 30.4 0 0 1 2.71 2.86 37.15 37.15 0 0 1 2.38 3.12 1.09 1.09 0 0 1-1.7 1.35 10.52 10.52 0 0 0-4.63-3.1 9.61 9.61 0 0 0-5.52 0 18.46 18.46 0 0 0-5.28 2.53 27.63 27.63 0 0 0-4.56 3.83l-.79-1.83a15.52 15.52 0 0 1 7.78 2.59 29.29 29.29 0 0 1 6 5.22 51.39 51.39 0 0 1 4.75 6.27 59.09 59.09 0 0 1 3.84 6.82.61.61 0 0 1-1.09.55zm137.33-6.59a63.6 63.6 0 0 1 3.58-7.72 67.84 67.84 0 0 1 4.55-7.22 43.16 43.16 0 0 1 5.73-6.45 20.41 20.41 0 0 1 7.61-4.54l-.31 2.09a27.69 27.69 0 0 0-5.39-2.46 18.5 18.5 0 0 0-5.73-1.05 9.57 9.57 0 0 0-5.3 1.39 10.42 10.42 0 0 0-3.61 4.17 1.18 1.18 0 0 1-2.17-.93 36.56 36.56 0 0 1 1.5-3.64 29.15 29.15 0 0 1 1.89-3.46 15.13 15.13 0 0 1 2.6-3.16 7.3 7.3 0 0 1 1.83-1.25 5 5 0 0 1 2.35-.5l-.31 2.15a37.69 37.69 0 0 0-5.37-1 31.38 31.38 0 0 0-5.48-.15 18.87 18.87 0 0 0-5.33 1 11.25 11.25 0 0 0-4.48 2.89.43.43 0 0 1-.62 0 .42.42 0 0 1 0-.59 12.23 12.23 0 0 1 4.7-3.44 20.41 20.41 0 0 1 5.62-1.45 34.91 34.91 0 0 1 5.78-.17 40.49 40.49 0 0 1 5.75.71 1.09 1.09 0 0 1-.3 2.15 3.85 3.85 0 0 0-2.6 1.22 13.44 13.44 0 0 0-2.17 2.73 29 29 0 0 0-1.71 3.22c-.5 1.11-1 2.28-1.35 3.4l-2.18-.9a12.75 12.75 0 0 1 4.46-5.11 11.3 11.3 0 0 1 3.19-1.38 13.92 13.92 0 0 1 3.38-.39 20.31 20.31 0 0 1 6.47 1.18 29.45 29.45 0 0 1 5.89 2.75 1.15 1.15 0 0 1 .38 1.58 1.12 1.12 0 0 1-.65.51 18.24 18.24 0 0 0-6.75 4 41.81 41.81 0 0 0-5.49 6.07 77.3 77.3 0 0 0-4.65 6.87 120.3 120.3 0 0 0-4.1 7.25.61.61 0 0 1-1.11-.5z" fill="#31323d"/>
      <path d="M137.81 120c-7.77-6.4-21.75-8.58-23.68-5.87l11.26 20.11m82.39-15.84c5.15-4.05 23.29-11.58 26.25-10.1L221.22 129" fill="none" stroke="#31323d" stroke-linecap="round" stroke-miterlimit="10" stroke-width="2.183"/>
      <path d="M152.66 120.63a24.17 24.17 0 0 1-4.48-4 17 17 0 0 1-3.18-5.23 11.08 11.08 0 0 1-.4-6.2 13.77 13.77 0 0 1 2.82-5.51.88.88 0 0 1 1.24-.13.85.85 0 0 1 .32.7v.06a5.41 5.41 0 0 0 1.25 3.94 6.81 6.81 0 0 0 1.65 1.41 8.71 8.71 0 0 0 2 .91l-1.12 1.42a12 12 0 0 1 .3-10.15 23.3 23.3 0 0 1 6.24-7.69 16.48 16.48 0 0 0 5.81-11.74 15.4 15.4 0 0 0-.37-4.38V74a1.08 1.08 0 0 1 .79-1.31 1.06 1.06 0 0 1 .75.09 87.19 87.19 0 0 1 9.2 5.44 65.17 65.17 0 0 1 8.4 6.64 30.33 30.33 0 0 1 6.64 8.62 14.89 14.89 0 0 1 1.5 5.45 12.18 12.18 0 0 1-1 5.65l-1.53-1.39a10.74 10.74 0 0 0 3.91-4.42 10.65 10.65 0 0 0 .84-5.91v-.11a1.07 1.07 0 0 1 1-1.16 1.09 1.09 0 0 1 .94.42 21.48 21.48 0 0 1 3.37 6.55 23.07 23.07 0 0 1 1.12 7.18 23.77 23.77 0 0 1-1.13 7.12 29.73 29.73 0 0 1-3 6.51.61.61 0 0 1-.84.21.62.62 0 0 1-.21-.83 28.16 28.16 0 0 0 2.62-6.3 22 22 0 0 0 .83-6.69 21.26 21.26 0 0 0-1.26-6.57 20 20 0 0 0-3.18-5.76l1.9-.85a12.83 12.83 0 0 1-1 7.11 12.64 12.64 0 0 1-2 3 12.15 12.15 0 0 1-2.82 2.37 1.09 1.09 0 0 1-1.48-.37 1.07 1.07 0 0 1-.07-1 10 10 0 0 0 .82-4.64 12.55 12.55 0 0 0-1.29-4.65 28.44 28.44 0 0 0-6.17-8 63.23 63.23 0 0 0-8.14-6.4 83.27 83.27 0 0 0-8.94-5.29l1.53-1.28a17.43 17.43 0 0 1 .44 5.1 18.66 18.66 0 0 1-.93 5 19.11 19.11 0 0 1-5.62 8.28 21.29 21.29 0 0 0-5.8 6.94 11.49 11.49 0 0 0-1.14 4.21 9.75 9.75 0 0 0 .1 2.16 7.27 7.27 0 0 0 .58 2v.08a1 1 0 0 1-.44 1.29 1 1 0 0 1-.72 0 10 10 0 0 1-2.48-1.18 8.52 8.52 0 0 1-2.05-1.84 7 7 0 0 1-1.31-2.49 7.69 7.69 0 0 1-.26-2.77l1.56.63a12.23 12.23 0 0 0-2.6 4.76 9.41 9.41 0 0 0 .24 5.33 15.34 15.34 0 0 0 2.77 4.82 22.58 22.58 0 0 0 4.12 3.88.61.61 0 0 1-.7 1z" fill="#31323d"/>
      <circle cx="224.88" cy="163.43" r="22.65" fill="#fff" stroke="#31323d" stroke-linecap="round" stroke-miterlimit="10" stroke-width="1.746"/>
      <circle data-name="&lt;Ellipse&gt;" cx="130.09" cy="166.34" r="22.65" fill="#fff"/>
      <circle data-name="&lt;Ellipse&gt;" cx="130.09" cy="166.34" r="22.65" fill="none" stroke="#31323d" stroke-linecap="round" stroke-miterlimit="10" stroke-width="1.746"/>
      <circle cx="129.81" cy="166.57" r="14" fill="#a66421"/>
      <circle cx="129.42" cy="166.76" r="10.15" fill="#31323d"/>
      <circle cx="135.12" cy="158.8" r="5.4" fill="#fff"/>
      <circle cx="224.95" cy="163.98" r="14" fill="#a66421"/>
      <circle cx="224.56" cy="164.17" r="10.15" fill="#31323d"/>
      <circle cx="230.26" cy="156.2" r="5.4" fill="#fff"/>
      <path d="M168.93 212.15s3.48 15 14 13.51c10.19-1.46 11.53-14.7 11.53-14.7s-4.56 7-11.17 7.73-14.36-6.54-14.36-6.54z" style="mix-blend-mode:multiply" fill="#595959" opacity=".2"/>
      <path d="M167 173.42a2.59 2.59 0 0 1 .54-2.79c1.52-1.58 4.8-3.93 11-4.15s9.23 1.85 10.68 3.34a2.6 2.6 0 0 1 .52 2.8 3.64 3.64 0 0 1-3.12 2.24 7.13 7.13 0 0 0-5.27 2.45 24.27 24.27 0 0 1-1.81 2l-1.19 1.16-2.15-2.33s-1.33-2.14-6-2.37a3.62 3.62 0 0 1-3.16-2.27z" fill="#31323d"/>
      <path d="M180.09 177.13a46 46 0 0 0 1.72 6.79 35.32 35.32 0 0 0 2.84 6.41 17.09 17.09 0 0 0 4.5 5.24 10.05 10.05 0 0 0 6.51 2 .25.25 0 0 1 .27.24.26.26 0 0 1-.23.28 10.84 10.84 0 0 1-7.14-1.65 18.08 18.08 0 0 1-5.23-5.26 36 36 0 0 1-3.48-6.51 47.6 47.6 0 0 1-2.33-7 1.31 1.31 0 0 1 2.55-.62v.09z" fill="#31323d"/>
      <path d="M165.23 198.44l1.82-.21q.88-.22 1.74-.48a13.9 13.9 0 0 0 1.59-.8 7.77 7.77 0 0 0 1.39-1.09 13.88 13.88 0 0 0 3.41-6.18 50.64 50.64 0 0 0 1.41-7.2c.34-2.45.61-4.92.93-7.41a1.31 1.31 0 1 1 2.6.33v.09c-.48 2.43-.93 4.89-1.44 7.35a52.15 52.15 0 0 1-2 7.34 15.22 15.22 0 0 1-4.21 6.47 9.06 9.06 0 0 1-1.62 1.1 17.46 17.46 0 0 1-1.8.74c-.63.15-1.26.27-1.89.38l-1.91.1a.27.27 0 0 1-.27-.25.25.25 0 0 1 .23-.27zm2.36-9.82a34.75 34.75 0 0 0-13.21-.63 34.07 34.07 0 0 0-12.54 4.44 36.73 36.73 0 0 0-5.44 3.94 36.24 36.24 0 0 0-4.54 5l-1 1.36-.89 1.44a27.59 27.59 0 0 0-1.65 3 34.66 34.66 0 0 0-2.33 6.37 34.22 34.22 0 0 1 2.14-6.46 25.64 25.64 0 0 1 1.56-3l.85-1.48 1-1.4a33.76 33.76 0 0 1 9.88-9.41 35.25 35.25 0 0 1 12.78-5 36.52 36.52 0 0 1 13.82.23.87.87 0 1 1-.37 1.71zm-34.95-2.7a58.44 58.44 0 0 1 13.62-3.84 59.89 59.89 0 0 1 7.09-.67 49.21 49.21 0 0 1 7.17.21.87.87 0 0 1-.19 1.73h-.06a51.14 51.14 0 0 0-6.92-.63 62.88 62.88 0 0 0-7 .24 58.45 58.45 0 0 0-6.94 1.06 57.38 57.38 0 0 0-6.77 1.9z" fill="#31323d"/>
      <path d="M165.17 193.16a19.77 19.77 0 0 0-9.56.7 15.89 15.89 0 0 0-7.71 5.69 18.26 18.26 0 0 0-3.38 9.17 21.48 21.48 0 0 0 1.45 9.82 21.61 21.61 0 0 1-1.88-9.85 19 19 0 0 1 3.09-9.64 17 17 0 0 1 8-6.41 21.06 21.06 0 0 1 10.29-1.2.87.87 0 0 1-.22 1.73h-.06zm25-8.98a36.3 36.3 0 0 1 13.82.14 35.29 35.29 0 0 1 12.65 5.32 34.08 34.08 0 0 1 9.63 9.66l.93 1.43.82 1.51a27.07 27.07 0 0 1 1.48 3.07 35.36 35.36 0 0 1 2 6.51 34.38 34.38 0 0 0-2.16-6.42 25.13 25.13 0 0 0-1.57-3l-.85-1.46-1-1.39a35.71 35.71 0 0 0-4.42-5.09 35 35 0 0 0-5.33-4.08 34 34 0 0 0-12.42-4.78 35 35 0 0 0-13.22.29.87.87 0 0 1-.37-1.7zm35.36-.07a56.87 56.87 0 0 0-6.73-2.11 55.91 55.91 0 0 0-6.91-1.25 60.39 60.39 0 0 0-7-.42 48.31 48.31 0 0 0-6.93.45.87.87 0 0 1-.25-1.73h.06a52 52 0 0 1 7.17 0 61.76 61.76 0 0 1 7.07.87 57.83 57.83 0 0 1 6.9 1.68 59.12 59.12 0 0 1 6.62 2.51z" fill="#31323d"/>
      <path d="M192.59 188.76a21.19 21.19 0 0 1 10.25 1.47 17 17 0 0 1 7.81 6.62 19 19 0 0 1 2.84 9.72 21.62 21.62 0 0 1-2.15 9.8 21.27 21.27 0 0 0 1.71-9.78 18.25 18.25 0 0 0-3.13-9.25 15.82 15.82 0 0 0-7.56-5.89 19.75 19.75 0 0 0-9.54-1 .87.87 0 1 1-.25-1.72zm2.81 21.13a12 12 0 0 1-1.76 3.92 13.73 13.73 0 0 1-3.11 3.07 15.41 15.41 0 0 1-3.95 1.93 16.34 16.34 0 0 1-12.72-1.37 14.8 14.8 0 0 1-6-6 .45.45 0 0 1 .19-.6.46.46 0 0 1 .53.09 18.76 18.76 0 0 0 6.27 4.47 17.91 17.91 0 0 0 3.61 1.11 15.66 15.66 0 0 0 3.73.34 15.84 15.84 0 0 0 3.69-.5 16.61 16.61 0 0 0 3.45-1.39 15.26 15.26 0 0 0 3-2.29 15.61 15.61 0 0 0 2.27-3.12.44.44 0 0 1 .6-.16.45.45 0 0 1 .2.5z" fill="#31323d"/>
    </g>
  </g>
</svg>